<?xml version="1.0" encoding="UTF-8"?>
<svg id="Layer_2" data-name="Layer 2" xmlns="http://www.w3.org/2000/svg" viewBox="0 0 921.66 93.89">
  <defs>
    <style>
      .cls-1 {
        fill: #005cad;
      }
    </style>
  </defs>
  <g id="LOGOTYPE_2" data-name="LOGOTYPE 2">
    <polygon class="cls-1" points="818.93 22.88 818.93 93.89 843.69 93.89 843.69 39.99 826.58 22.88 818.93 22.88"/>
    <polygon class="cls-1" points="921.66 67.64 921.66 93.89 896.91 93.89 896.9 84.75 914.01 67.64 921.66 67.64"/>
    <polygon class="cls-1" points="519.86 58.06 539.23 38.7 539.23 27.88 515.03 27.88 502.36 40.56 519.86 58.06"/>
    <rect class="cls-1" x="488.07" y="54.85" width="53.33" height="24.75" transform="translate(581.96 -447.51) rotate(90)"/>
    <g>
      <rect class="cls-1" x="705.83" y="0" width="61.47" height="24.75"/>
      <polygon class="cls-1" points="787.93 20.63 767.3 0 749.8 17.5 763.74 31.44 787.93 31.44 787.93 20.63"/>
      <polygon class="cls-1" points="685.21 20.63 705.83 0 723.34 17.5 709.4 31.44 685.21 31.44 685.21 20.63"/>
    </g>
    <polygon class="cls-1" points="587.86 0 514.61 0 514.61 24.75 570.76 24.75 587.86 7.65 587.86 0"/>
    <rect class="cls-1" x="494.14" y="0" width="61.47" height="24.75"/>
    <polygon class="cls-1" points="473.51 20.63 494.14 0 511.64 17.5 497.7 31.44 473.51 31.44 473.51 20.63"/>
    <rect class="cls-1" x="733.71" y="41.26" width="33.34" height="24.75" transform="translate(1500.77 107.27) rotate(180)"/>
    <polygon class="cls-1" points="713.08 45.38 733.71 66.01 751.22 48.51 737.28 34.57 713.09 34.57 713.08 45.38"/>
    <polygon class="cls-1" points="787.37 45.38 766.74 66.01 749.24 48.51 763.18 34.57 787.37 34.57 787.37 45.38"/>
    <polygon class="cls-1" points="580.48 93.89 615.6 58.76 615.6 41.26 598.1 41.26 562.97 76.38 562.97 93.89 580.48 93.89"/>
    <polygon class="cls-1" points="633.11 76.26 650.61 58.76 650.61 41.26 633.11 41.26 615.6 58.76 615.6 76.26 633.11 76.26"/>
    <g>
      <rect class="cls-1" x="599.93" y="0" width="61.47" height="24.75"/>
      <polygon class="cls-1" points="682.03 20.63 661.4 0 643.9 17.5 657.83 31.44 682.03 31.44 682.03 20.63"/>
      <polygon class="cls-1" points="541.05 93.89 617.43 17.5 599.93 0 530.24 69.69 530.24 93.89 541.05 93.89"/>
    </g>
    <rect class="cls-1" x="635.8" y="41.26" width="25.6" height="24.75" transform="translate(1297.19 107.27) rotate(-180)"/>
    <g>
      <polygon class="cls-1" points="682.03 20.63 661.4 0 643.9 17.5 657.83 31.44 682.03 31.44 682.03 20.63"/>
      <rect class="cls-1" x="604.06" y="0" width="57.34" height="24.75"/>
    </g>
    <polygon class="cls-1" points="661.4 66.01 682.03 45.38 682.03 34.57 657.83 34.57 643.9 48.51 661.4 66.01"/>
    <polygon class="cls-1" points="641 63.62 671.27 93.89 682.08 93.89 682.08 69.7 658.5 46.11 641 63.62"/>
    <rect class="cls-1" x="756.49" y="34.57" width="93.89" height="24.75" transform="translate(850.38 -756.49) rotate(90)"/>
    <rect class="cls-1" x="745.9" y="51.85" width="59.32" height="24.75" transform="translate(711.33 839.78) rotate(-90)"/>
    <rect class="cls-1" x="667.92" y="51.85" width="59.32" height="24.75" transform="translate(633.36 761.81) rotate(-90)"/>
    <rect class="cls-1" x="884.38" y="51.51" width="16.58" height="24.75" transform="translate(1785.35 127.78) rotate(180)"/>
    <polygon class="cls-1" points="818.93 10.82 884.38 76.26 901.88 58.76 843.13 0 818.93 0 818.93 10.82"/>
    <polygon class="cls-1" points="921.66 55.58 900.97 76.27 883.46 58.76 897.46 44.76 921.66 44.76 921.66 55.58"/>
    <rect class="cls-1" x="896.91" y="0" width="24.75" height="55.58"/>
    <polygon class="cls-1" points="314.42 73.26 293.79 93.89 276.29 76.39 290.23 62.45 314.42 62.45 314.42 73.26"/>
    <rect class="cls-1" x="248.47" y="34.57" width="29.17" height="24.75" transform="translate(43.85 199.76) rotate(-45)"/>
    <rect class="cls-1" x="264.62" y="27.88" width="29.17" height="24.75" transform="translate(558.42 80.51) rotate(180)"/>
    <rect class="cls-1" x="211.7" y="69.14" width="82.1" height="24.75" transform="translate(505.49 163.02) rotate(180)"/>
    <polygon class="cls-1" points="293.79 27.88 314.42 48.51 314.42 59.32 290.23 59.32 276.29 45.38 293.79 27.88"/>
    <polygon class="cls-1" points="211.7 20.63 232.33 0 249.83 17.51 235.89 31.44 211.7 31.44 211.7 20.63"/>
    <rect class="cls-1" x="248.47" y="34.57" width="29.17" height="24.75" transform="translate(482.27 -105.87) rotate(135)"/>
    <rect class="cls-1" x="232.33" y="41.26" width="29.17" height="24.75"/>
    <rect class="cls-1" x="232.33" y="0" width="82.1" height="24.75"/>
    <polygon class="cls-1" points="232.33 66.01 211.7 45.38 211.7 34.57 235.89 34.57 249.83 48.51 232.33 66.01"/>
    <polygon class="cls-1" points="102.72 73.26 82.1 93.89 64.59 76.39 78.53 62.45 102.72 62.45 102.72 73.26"/>
    <rect class="cls-1" x="36.78" y="34.57" width="29.17" height="24.75" transform="translate(-18.15 50.07) rotate(-45)"/>
    <rect class="cls-1" x="52.92" y="27.88" width="29.17" height="24.75" transform="translate(135.02 80.51) rotate(180)"/>
    <rect class="cls-1" x="0" y="69.14" width="82.1" height="24.75" transform="translate(82.1 163.02) rotate(180)"/>
    <polygon class="cls-1" points="82.1 27.88 102.72 48.51 102.72 59.32 78.53 59.32 64.59 45.38 82.1 27.88"/>
    <polygon class="cls-1" points="0 20.63 20.63 0 38.13 17.51 24.19 31.44 0 31.44 0 20.63"/>
    <rect class="cls-1" x="36.78" y="34.57" width="29.17" height="24.75" transform="translate(120.88 43.82) rotate(135)"/>
    <rect class="cls-1" x="20.63" y="41.26" width="29.17" height="24.75"/>
    <rect class="cls-1" x="20.63" y="0" width="82.1" height="24.75"/>
    <polygon class="cls-1" points="20.63 66.01 0 45.38 0 34.57 24.19 34.57 38.13 48.51 20.63 66.01"/>
    <polygon class="cls-1" points="208.57 38.69 187.95 59.32 170.44 41.82 191.07 24.32 208.57 38.69"/>
    <rect class="cls-1" x="98.88" y="6.97" width="38.69" height="24.75" transform="translate(137.57 -98.88) rotate(90)"/>
    <rect class="cls-1" x="176.85" y="6.97" width="38.69" height="24.75" transform="translate(215.54 -176.85) rotate(90)"/>
    <rect class="cls-1" x="126.48" y="34.57" width="29.17" height="24.75" transform="translate(282.12 93.89) rotate(180)"/>
    <rect class="cls-1" x="158.77" y="34.57" width="29.17" height="24.75" transform="translate(346.72 93.89) rotate(180)"/>
    <polygon class="cls-1" points="123.35 24.32 143.98 41.82 126.48 59.32 105.85 38.69 123.35 24.32"/>
    <rect class="cls-1" x="388.83" y="34.57" width="93.89" height="24.75" transform="translate(482.72 -388.83) rotate(90)"/>
    <rect class="cls-1" x="126.47" y="69.14" width="61.47" height="24.75" transform="translate(314.42 163.02) rotate(180)"/>
    <polygon class="cls-1" points="105.85 73.26 126.47 93.89 143.98 76.39 130.04 62.45 105.85 62.45 105.85 73.26"/>
    <polygon class="cls-1" points="208.57 73.26 187.94 93.89 170.44 76.39 184.38 62.45 208.57 62.45 208.57 73.26"/>
    <rect class="cls-1" x="388.55" y="62.17" width="38.69" height="24.75" transform="translate(333.35 482.44) rotate(-90)"/>
    <rect class="cls-1" x="310.58" y="62.17" width="38.69" height="24.75" transform="translate(255.38 404.46) rotate(-90)"/>
    <polygon class="cls-1" points="335.05 72.7 362.37 45.38 362.37 34.57 338.17 34.57 317.55 55.2 335.05 72.7"/>
    <polygon class="cls-1" points="402.77 72.7 375.45 45.38 375.45 34.57 399.64 34.57 420.27 55.2 402.77 72.7"/>
    <g>
      <rect class="cls-1" x="370.47" y="34.57" width="29.17" height="24.75"/>
      <rect class="cls-1" x="338.17" y="34.57" width="29.17" height="24.75"/>
    </g>
    <polygon class="cls-1" points="317.54 43.13 317.54 0 342.3 0 342.3 26.02 325.19 43.13 317.54 43.13"/>
    <polygon class="cls-1" points="420.27 43.12 420.27 0 395.52 0 395.52 26.02 412.62 43.12 420.27 43.12"/>
  </g>
</svg>